<?xml version="1.0" encoding="utf-8"?>
<!-- Generator: Adobe Illustrator 18.0.0, SVG Export Plug-In . SVG Version: 6.00 Build 0)  -->
<!DOCTYPE svg PUBLIC "-//W3C//DTD SVG 1.1//EN" "http://www.w3.org/Graphics/SVG/1.1/DTD/svg11.dtd">
<svg version="1.1" id="Layer_1" xmlns="http://www.w3.org/2000/svg" xmlns:xlink="http://www.w3.org/1999/xlink" x="0px" y="0px"
	 viewBox="0 0 89.3 68.5" enable-background="new 0 0 89.3 68.5" xml:space="preserve">
<path fill-rule="evenodd" clip-rule="evenodd" fill="#221F20" d="M85,53.9H4.3v10H85V53.9z M16.9,60.7h-3.7v-3.7h3.7V60.7z M7,61.6
	V56l4.1,2.8L7,61.6z M21.6,61.4h-2.3v-5.2h2.3V61.4z M25.4,61.4h-2.3v-5.2h2.3V61.4z M44,60c-0.4,1-1.5,1.7-2.6,1.7
	c-1.2,0-2.2-0.7-2.6-1.7h-8.5v-2.3h8.5c0.4-1,1.4-1.7,2.6-1.7c1.2,0,2.2,0.7,2.6,1.7h38.2V60H44z M2,52.7V3.6c0-0.6,0.5-1.1,1.2-1.1
	h82.9c0.6,0,1.1,0.5,1.1,1.1v49.1v0v12.3c0,0.6-0.5,1.2-1.1,1.2H3.2c-0.6,0-1.2-0.5-1.2-1.2V52.7z M39.1,38.2c-0.1,0-0.2,0-0.3-0.1
	c-0.2-0.1-0.3-0.3-0.3-0.5V18c0-0.2,0.1-0.4,0.3-0.5c0.2-0.1,0.4-0.1,0.6,0l16.9,9.8c0.2,0.1,0.3,0.3,0.3,0.5c0,0.2-0.1,0.4-0.3,0.5
	l-16.9,9.8C39.3,38.2,39.2,38.2,39.1,38.2L39.1,38.2z"/>
</svg>
