<?xml version="1.0" encoding="UTF-8" standalone="no"?> <svg id="Layer_1" data-name="Layer 1" xmlns="http://www.w3.org/2000/svg" viewBox="0 0 128 128"><defs><style>.cls-1{fill:#2d3e50;}.cls-2{fill:#2e79bd;}</style></defs><title>x</title><path class="cls-1" d="M80.56771,76.53471a35.16242,35.16242,0,0,0-69.8603-4.1322c-.23936,1.49942-6.31448,33.85312-8.32073,44.518a1.75586,1.75586,0,0,0,2.47088,1.91473L27.546,108.19855A35.1674,35.1674,0,0,0,80.56771,76.53471ZM27.06728,82.55354a4.6285,4.6285,0,1,1,4.632-4.625A4.62965,4.62965,0,0,1,27.06728,82.55354Zm18.43653,0a4.6285,4.6285,0,1,1,4.632-4.625A4.62363,4.62363,0,0,1,45.50381,82.55354Zm18.43653,0a4.6285,4.6285,0,1,1,4.632-4.625A4.62363,4.62363,0,0,1,63.94034,82.55354Z"/><path class="cls-2" d="M125.30392,84.73578,106.86034,59.47794A39.46624,39.46624,0,1,0,30.756,38.57052a41.8317,41.8317,0,0,1,9.91167-2.38637,30.845,30.845,0,0,1,57.35809,22.611l-.76028,2.147,13.178,18.05637c-6.39191.03523-15.22651.09856-23.01928.15489a41.04513,41.04513,0,0,1-1.14745,8.63047c7.90538-.06337,29.25629-.19713,37.61926-.25341A1.75721,1.75721,0,0,0,125.30392,84.73578Z"/></svg>