<svg xmlns="http://www.w3.org/2000/svg" width="2500" height="1000" viewBox="0 0 2500 1000">
  <defs>
    <style>
      .cls-1, .cls-2, .cls-3 {
        fill-rule: evenodd;
      }

      .cls-2 {
        fill: #009c3b;
      }

      .cls-3 {
        fill: #ffdf00;
      }
    </style>
  </defs>
  <path id="E" class="cls-1" d="M574.706,771.164H272.756V557.293H553.679V412.519H272.756V230.729h301.95V85.956H96.57v830.8H574.706v-145.6Z"/>
  <path id="rect" class="cls-2" d="M346.115,86h72.577L358.578,231H286Z"/>
  <path id="rect-2" data-name="rect" class="cls-3" d="M417.769,86h72.577L430.231,231H357.654Z"/>
  <path id="rect-3" data-name="rect" class="cls-2" d="M489.422,86H562L501.885,231H429.308Z"/>
  <path id="Ewerton_Solutions" data-name="Ewerton Solutions" class="cls-1" d="M794.4,512.374H698.182V444.187h89.53v-45.94h-89.53V340.189H794.4V294.248H642.114V558.677H794.4v-46.3Zm290.056,46.3,58.24-202.21h-54.08L1064.38,446q-1.815,7.961-5.97,30.657t-5.79,35.721h-1.08q-0.18-5.061-1.36-13.474t-2.62-17.183q-1.455-8.77-2.98-16.549-1.545-7.774-2.26-11.756l-23.7-96.945H957.85l-24.959,96.945L930,468.785q-5.608,29.844-6.331,43.589h-1.085q-5.79-42.323-11.395-66.378l-23.331-89.529H832.871l57.516,202.21h59.324l36.9-160.068h1.266l20.976,89.348,15.56,70.72h60.05ZM1299.81,403.04q10.32,11.124,10.67,31.561h-77.41q1.455-20.436,11.4-31.561t27.49-11.123Q1289.5,391.917,1299.81,403.04Zm20.08,155.727a129.593,129.593,0,0,0,30.93-10.762V505.321a172.769,172.769,0,0,1-34.01,12.118,151.6,151.6,0,0,1-34.54,3.8q-23.52,0-36.54-13.2t-13.92-36.716h130.4V444.549q0-43.044-23.87-67.463t-66.74-24.418q-44.865,0-70.27,27.764t-25.41,78.587q0,49.375,27.49,76.326t76.33,26.949Q1303.425,562.294,1319.89,558.767Zm178.19-195.7a75.984,75.984,0,0,0-25.42,27.4h-2.71l-8.14-34h-41.78v202.21h55.17V455.763q0-24.417,14.74-37.982t41.14-13.565a63.288,63.288,0,0,1,16.28,1.808l4.16-51.728a88.93,88.93,0,0,0-18.63-1.628A62.645,62.645,0,0,0,1498.08,363.068Zm170.86,149.668q-6.6-5.6-6.6-17.363V397.885h56.61V356.467h-56.61V313.42h-35.27l-15.92,42.685-30.38,18.448v23.332h26.4v97.488q0,33.464,15.1,50.191t48.21,16.73q30.015,0,50.64-9.224V512.013q-20.265,6.333-34.73,6.33Q1675.545,518.343,1668.94,512.736Zm159.74-100.653q9.765-14.921,31.83-14.921,22.245,0,32.01,15.012t9.77,45.036q0,30.207-9.68,45.488t-31.74,15.283q-22.245,0-32.1-15.373t-9.86-45.4Q1818.91,427.006,1828.68,412.083Zm118.1-10.4a84.528,84.528,0,0,0-34.18-36.355q-22.245-12.657-51.37-12.661-46.845,0-72.71,27.492t-25.86,77.05q0,31.836,11.94,55.707t34.18,36.626q22.245,12.751,51.37,12.751,46.485,0,72.53-27.854t26.04-77.23Q1958.72,425.379,1946.78,401.684Zm257.14,25.14q0-35.989-18.27-55.074t-53.54-19.082q-20.61,0-36.8,7.506a58.311,58.311,0,0,0-25.41,22.157h-3.08l-7.41-25.864h-42.15v202.21h55.17V463.54q0-35.811,10.31-51.276T2116.2,396.8q17,0,24.78,10.943t7.77,32.827V558.677h55.17V426.824ZM784.456,796.107q-13.747-17.814-50.824-35.541-28.036-13.383-35.54-18.539T687.15,731.356a23.935,23.935,0,0,1-3.437-12.932q0-11.937,8.5-19.353t24.417-7.415a112.747,112.747,0,0,1,27.22,3.436q13.837,3.438,35,12.118l18.087-43.589a270.8,270.8,0,0,0-39.158-13.746,155.276,155.276,0,0,0-39.338-4.883q-41.964,0-65.746,20.076T628.91,720.233q0,18.63,7.235,32.556A82.065,82.065,0,0,0,655.5,777.206q12.115,10.491,36.354,21.885,25.863,12.3,34.274,17.906a48.6,48.6,0,0,1,12.752,11.666,23.166,23.166,0,0,1,4.34,13.836q0,13.929-9.857,20.981t-28.306,7.053a134.03,134.03,0,0,1-33.912-4.883q-18.542-4.884-45.308-16.821v52.09q32.557,15.918,74.88,15.917,45.939,0,71.714-20.619T798.2,839.786Q798.2,813.923,784.456,796.107Zm124.017-29.482q9.768-14.922,31.833-14.921,22.246,0,32.014,15.012t9.767,45.036q0,30.207-9.677,45.488t-31.742,15.283q-22.247,0-32.1-15.374t-9.857-45.4Q898.707,781.548,908.473,766.625Zm118.107-10.4A84.505,84.505,0,0,0,992.4,719.871Q970.15,707.213,941.03,707.21q-46.846,0-72.709,27.492t-25.864,77.05q0,31.835,11.937,55.707t34.184,36.625q22.246,12.752,51.366,12.752,46.482,0,72.526-27.854t26.05-77.23Q1038.52,779.921,1026.58,756.225Zm125.65-124.437h-55.17v281.43h55.17V631.788Zm256.41,281.43V711.008h-55.17v95.137q0,35.811-10.31,51.276t-33.46,15.464q-17,0-24.78-10.943t-7.77-32.827V711.008h-55.17V842.861q0,35.811,18.09,54.893t53.72,19.082q20.79,0,37.07-7.687T1356,887.354h2.9l7.41,25.864h42.33Zm138.57-45.94q-6.6-5.6-6.6-17.363V752.427h56.61V711.008h-56.61V667.962h-35.27l-15.91,42.685L1459.04,729.1v23.332h26.41v97.488q0,33.462,15.1,50.19t48.2,16.731q30.03,0,50.64-9.225V866.554q-20.25,6.333-34.72,6.331Q1553.81,872.885,1547.21,867.278Zm133.7-181.41q15.015,0,22.52-7.145t7.5-19.985q0-26.949-30.02-26.95t-30.03,26.95q0,27.129,30.03,27.13h0Zm27.49,25.14h-55.16v202.21h55.16V711.008Zm124.56,55.617q9.765-14.922,31.83-14.921,22.245,0,32.02,15.012t9.76,45.036q0,30.207-9.67,45.488-9.69,15.285-31.75,15.283-22.245,0-32.1-15.374t-9.86-45.4Q1823.19,781.548,1832.96,766.625Zm118.11-10.4a84.542,84.542,0,0,0-34.19-36.354q-22.245-12.658-51.36-12.661-46.845,0-72.71,27.492t-25.87,77.05q0,31.835,11.94,55.707t34.18,36.625q22.26,12.752,51.37,12.752,46.485,0,72.53-27.854t26.04-77.23Q1963,779.921,1951.07,756.225Zm257.13,25.141q0-35.989-18.27-55.074T2136.4,707.21q-20.625,0-36.81,7.506a58.315,58.315,0,0,0-25.41,22.156h-3.08l-7.41-25.864h-42.14v202.21h55.16V818.082q0-35.812,10.31-51.276t33.46-15.464q16.995,0,24.78,10.942,7.77,10.946,7.78,32.828V913.218h55.16V781.366Zm205.59,45.94a52.959,52.959,0,0,0-16.28-19.172q-11.025-8.317-34.72-17.906-26.6-10.669-34.46-16.1t-7.87-12.842q0-13.2,24.42-13.2a89.224,89.224,0,0,1,26.95,4.16q13.2,4.163,28.4,10.671l16.64-39.791a168.223,168.223,0,0,0-71.09-15.916q-38.34,0-59.23,14.741t-20.89,41.69q0,15.735,4.97,26.5t15.92,19.081q10.935,8.322,34.27,18.087,16.29,6.876,26.05,12.028t13.75,9.224a14.5,14.5,0,0,1,3.97,10.581q0,17.363-30.02,17.363-14.655,0-33.91-4.883a192.377,192.377,0,0,1-34.64-12.118v45.578a142.044,142.044,0,0,0,29.12,8.772q15.555,2.985,37.62,2.985,43.05,0,64.66-16.278t21.62-47.388Q2419.04,838.16,2413.79,827.306Z"/>
</svg>
